<?xml version="1.0" encoding="UTF-8"?>
<svg id="Capa_2" data-name="Capa 2" xmlns="http://www.w3.org/2000/svg" viewBox="0 0 2246.12 225.76">
  <defs>
    <style>
      .cls-1 {
        fill: #e74018;
      }

      .cls-2 {
        fill: #fff;
      }
    </style>
  </defs>
  <g id="Logos">
    <g id="Logo_5" data-name="Logo 5">
      <path class="cls-2" d="M0,221.64V4.01c56.91,3.05,121.75-12.79,167.7,29.14,53.04,48.41,43.55,136.49-18.07,172.99-44.44,26.33-100.12,11.8-149.63,15.5ZM51.25,54.91v114.96l2.65,2.63h42.41c50.3,0,74.59-66.81,38.86-101.78-4.28-4.19-23-15.81-28.26-15.81h-55.67Z"/>
      <polygon class="cls-2" points="541.65 4.01 639.73 133.89 639.73 4.01 690.98 4.01 690.98 221.64 640.61 221.64 550.12 99.26 546.07 97.03 546.07 221.64 494.82 221.64 494.82 6.64 497.47 4.01 541.65 4.01"/>
      <path class="cls-1" d="M1918.3,4.01c79.34,7.27,90.58,111.19,22.96,133.39-1.92.63-3.15-1.39-2.66,2.63l47.73,81.62h-60.08l-39.76-71.96h-25.62v71.96h-51.25V4.01c35.02,2.36,74.14-3.17,108.68,0ZM1860.87,98.79h50.37c2.27,0,13.89-6.36,15.99-8.69,12.13-13.46,1.7-40.45-15.99-40.45h-50.37v49.14Z"/>
      <path class="cls-2" d="M330.47,2.26v51.78c-58.91,18.9-55.21,105.41,4.87,118.02,76.72,16.1,105.64-93.29,32.25-117.14V2.26c83.53,15.22,123,108.07,72.16,177.85-37.74,51.79-112.63,60.04-162.31,19.62C202.22,138.54,236.04,17.52,330.47,2.26Z"/>
      <path class="cls-1" d="M1631.13,4.01v137.77c0,2.74,5.54,15.76,7.42,18.96,17.19,29.17,73.3,24.14,83.28-9.62.62-2.1,2.97-13.29,2.97-14.61V4.01h51.25v146.55c0,13.83-14.46,41.24-24.7,50.94-38.34,36.29-129.74,32.17-158.77-14.39-3.82-6.13-12.68-26.6-12.68-33.04V4.01h51.25Z"/>
      <path class="cls-1" d="M1335.93,58.34l-44.81,21c-35.07-50.58-114.99-27.2-113.1,35.47,1.62,53.87,65.65,76.75,105.04,41.08,3.22-2.91,5.12-9.62,9.6-9.69l45.12,21.06c-49.27,86.98-180.25,73.2-207.63-24.62-29.51-105.39,95.3-185.42,180.2-117.54,4.93,3.94,29.08,28.26,25.59,33.23Z"/>
      <polygon class="cls-1" points="880.07 49.64 775.8 49.64 775.8 91.77 876.53 91.77 876.53 137.4 775.8 137.4 775.8 221.64 724.55 221.64 724.55 4.01 877.42 4.01 880.07 6.64 880.07 49.64"/>
      <polygon class="cls-1" points="1546.3 49.64 1484.45 49.64 1484.45 221.64 1433.2 221.64 1433.2 52.28 1430.55 49.64 1371.35 49.64 1371.35 4.01 1543.65 4.01 1546.3 6.64 1546.3 49.64"/>
      <polygon class="cls-1" points="1014.38 4.01 935.73 221.64 880.07 221.64 963.13 4.01 1014.38 4.01"/>
      <polygon class="cls-1" points="2155.99 4.01 2077.35 221.64 2019.91 221.64 2104.74 4.01 2155.99 4.01"/>
      <polygon class="cls-1" points="1106.27 221.64 1048.84 221.64 1000.24 86.5 1052.37 86.5 1106.27 221.64"/>
      <polygon class="cls-1" points="2194.87 86.5 2246.12 221.64 2190.45 221.64 2141.85 86.5 2194.87 86.5"/>
      <path class="cls-2" d="M346.01,83.37c42.81-4.17,43.65,64.89-3.94,57.42-30.57-4.8-28.76-54.24,3.94-57.42Z"/>
    </g>
  </g>
</svg>